<svg xmlns="http://www.w3.org/2000/svg" width="256" height="256" viewBox="0 0 100 100"><rect width="100" height="100" rx="50" fill="#f29602"></rect><path d="M80.61 15.19L80.61 67.17Q80.61 72.00 79.24 75.94Q77.88 79.87 74.47 82.66Q71.05 85.44 65.07 87.01Q59.08 88.59 49.84 88.59L49.84 88.59Q40.71 88.59 34.78 87.01Q28.84 85.44 25.43 82.66Q22.02 79.87 20.71 75.94Q19.39 72.00 19.39 67.17L19.39 67.17L19.39 50.16Q19.39 48.16 20.29 47.27Q21.18 46.38 23.17 46.38L23.17 46.38L38.40 46.38Q40.39 46.38 41.28 47.27Q42.18 48.16 42.18 50.16L42.18 50.16L42.18 62.97Q42.18 65.07 43.49 66.48Q44.80 67.90 49.63 67.90L49.63 67.90Q54.15 67.90 55.36 66.48Q56.56 65.07 56.56 62.97L56.56 62.97L56.56 15.19Q56.56 13.20 57.45 12.31Q58.35 11.41 60.34 11.41L60.34 11.41L76.83 11.41Q78.82 11.41 79.72 12.31Q80.61 13.20 80.61 15.19L80.61 15.19ZM69.06 20.86L68.01 20.86L68.01 64.65Q68.01 70.53 64.23 74.15Q60.45 77.77 50.05 77.77L50.05 77.77Q39.24 77.77 35.30 74.20Q31.36 70.63 31.36 64.65L31.36 64.65L31.36 56.35L30.31 56.35L30.31 64.65Q30.31 67.80 31.21 70.42Q32.10 73.05 34.30 74.89Q36.51 76.72 40.34 77.77Q44.17 78.82 50.05 78.82L50.05 78.82Q61.18 78.82 65.12 74.83Q69.06 70.84 69.06 64.65L69.06 64.65L69.06 20.86Z" fill="#fff"></path></svg>